<svg width="24" height="24" viewBox="0 0 24 24" fill="none" xmlns="http://www.w3.org/2000/svg">
<path fill-rule="evenodd" clip-rule="evenodd" d="M5.85115 15.4724C4.0119 12.1183 5.11904 7.87171 8.25179 5.96742C11.2943 4.11797 15.1988 5.1153 17.1061 8.24679L15.3729 7.75784C14.8533 7.61127 14.3084 7.93298 14.1558 8.47641C14.0032 9.01984 14.3006 9.5792 14.8202 9.72577L18.7029 10.8211C18.9566 10.8927 19.2297 10.8541 19.4601 10.714C19.6905 10.5739 19.8588 10.3443 19.9268 10.0772L20.9672 5.9892C21.1064 5.44218 20.795 4.89129 20.2717 4.75875C19.7484 4.6262 19.2113 4.9622 19.0721 5.50922L18.6917 7.0038C16.2264 3.10128 11.2472 1.8084 7.29015 4.21378C3.17234 6.71686 1.79525 12.2315 4.14212 16.5113C6.48899 20.791 11.7136 22.2927 15.8314 19.7896C18.0554 18.4377 19.4833 16.1992 19.9521 13.7585C20.0585 13.2043 19.7144 12.6753 19.1834 12.577C18.6525 12.4787 18.1358 12.8483 18.0293 13.4025C17.6661 15.2936 16.5669 17.0044 14.8698 18.036C11.737 19.9403 7.6904 18.8264 5.85115 15.4724Z" fill="black"/>
</svg>
