<svg width="12" height="12" viewBox="0 0 12 12" fill="none" xmlns="http://www.w3.org/2000/svg">
<path fill-rule="evenodd" clip-rule="evenodd" d="M5 3.5H11C11.2761 3.5 11.5 3.72386 11.5 4C11.5 4.27614 11.2761 4.5 11 4.5H5V3.5Z" fill="black"/>
<path fill-rule="evenodd" clip-rule="evenodd" d="M0.5 4C0.5 3.72386 0.723858 3.5 1 3.5H2C2.27614 3.5 2.5 3.72386 2.5 4C2.5 4.27614 2.27614 4.5 2 4.5H1C0.723858 4.5 0.5 4.27614 0.5 4Z" fill="black"/>
<path fill-rule="evenodd" clip-rule="evenodd" d="M3.90906 3C3.35677 3 2.90906 3.44772 2.90906 4C2.90906 4.55228 3.35677 5 3.90906 5C4.46134 5 4.90906 4.55228 4.90906 4C4.90906 3.44772 4.46134 3 3.90906 3ZM1.90906 4C1.90906 2.89543 2.80449 2 3.90906 2C5.01363 2 5.90906 2.89543 5.90906 4C5.90906 5.10457 5.01363 6 3.90906 6C2.80449 6 1.90906 5.10457 1.90906 4Z" fill="black"/>
<path fill-rule="evenodd" clip-rule="evenodd" d="M7.00001 8.5L1.00001 8.5C0.723871 8.5 0.500014 8.27614 0.500014 8C0.500014 7.72386 0.723871 7.5 1.00001 7.5L7.00001 7.5V8.5Z" fill="black"/>
<path fill-rule="evenodd" clip-rule="evenodd" d="M11.5 8C11.5 8.27614 11.2762 8.5 11 8.5L10 8.5C9.72387 8.5 9.50001 8.27614 9.50001 8C9.50001 7.72386 9.72387 7.5 10 7.5H11C11.2762 7.5 11.5 7.72386 11.5 8Z" fill="black"/>
<path fill-rule="evenodd" clip-rule="evenodd" d="M8.09096 9C8.64324 9 9.09096 8.55229 9.09096 8C9.09096 7.44772 8.64324 7 8.09096 7C7.53867 7 7.09096 7.44772 7.09096 8C7.09096 8.55229 7.53867 9 8.09096 9ZM10.091 8C10.091 9.10457 9.19553 10 8.09096 10C6.98639 10 6.09096 9.10457 6.09096 8C6.09096 6.89543 6.98639 6 8.09096 6C9.19553 6 10.091 6.89543 10.091 8Z" fill="black"/>
</svg>
